<svg xmlns="http://www.w3.org/2000/svg" width="235.074" height="427.415" viewBox="0 0 235.074 427.415">
  <circle id="Ellipse_6" data-name="Ellipse 6" cx="33" cy="33" r="33" transform="translate(50.907 27.925)" fill="#2f2e41"/>
  <path id="Pfad_27" data-name="Pfad 27" d="M790.3,562.8a10.743,10.743,0,0,1,6.253-15.24L838.37,459.1,857.5,472.51l-47.119,82.735A10.8,10.8,0,0,1,790.3,562.8Z" transform="translate(-789.066 -330.202)" fill="#ffb8b8"/>
  <path id="Pfad_28" data-name="Pfad 28" d="M826.133,470.841a4.811,4.811,0,0,1,.552-3.973l13-20.382a13.377,13.377,0,1,1,24.456,10.85l-6.549,23.353a4.817,4.817,0,0,1-6.6,3.1l-22.209-9.931a4.811,4.811,0,0,1-2.647-3.014Z" transform="translate(-789.066 -330.202)" fill="#6c63ff"/>
  <path id="Pfad_29" data-name="Pfad 29" d="M931.348,571.566a10.743,10.743,0,0,1-7.444-14.694L884.3,467.4l22.655-5.706,31.8,89.742a10.8,10.8,0,0,1-7.412,20.13Z" transform="translate(-789.066 -330.202)" fill="#ffb8b8"/>
  <path id="Pfad_30" data-name="Pfad 30" d="M766.285,591.358l-11.52,4.2L733.1,553.115l17-6.191Z" transform="translate(-613.208 -187.819)" fill="#ffb8b8"/>
  <path id="Pfad_31" data-name="Pfad 31" d="M923.479,735.693h23.644V750.58H908.592A14.887,14.887,0,0,1,923.479,735.693Z" transform="matrix(0.94, -0.342, 0.342, 0.94, -987.32, 32.088)" fill="#2f2e41"/>
  <path id="Pfad_32" data-name="Pfad 32" d="M910.7,706.9l-43.887-76.8a4.822,4.822,0,0,1,.052-4.868l19.762-32.937a4.817,4.817,0,0,1,8.661.841L932.647,696.6a4.8,4.8,0,0,1-2.469,5.99l-13.239,6.271a4.773,4.773,0,0,1-2.044.459,4.84,4.84,0,0,1-4.2-2.422Z" transform="translate(-789.066 -330.202)" fill="#2f2e41"/>
  <circle id="Ellipse_7" data-name="Ellipse 7" cx="24.561" cy="24.561" r="24.561" transform="translate(56.342 47.859)" fill="#ffb8b8"/>
  <path id="Pfad_33" data-name="Pfad 33" d="M835.034,513.874c-19.342-42.889.157-66.859,9.439-75.173a14.557,14.557,0,0,1,9.73-3.721h34.6a14.576,14.576,0,0,1,13.038,21.095l-23.13,46.259-43.488,11.959Z" transform="translate(-789.066 -330.202)" fill="#6c63ff"/>
  <path id="Pfad_34" data-name="Pfad 34" d="M885.651,483.434a4.812,4.812,0,0,1-2.645-3.015l-6.924-23.163a13.377,13.377,0,1,1,24.2-11.413l13.39,20.223a4.817,4.817,0,0,1-1.974,7.022L889.662,483.4a4.812,4.812,0,0,1-4.011.033Z" transform="translate(-789.066 -330.202)" fill="#6c63ff"/>
  <path id="Pfad_35" data-name="Pfad 35" d="M687.147,602.955h-12.26l-5.832-47.288h18.094Z" transform="translate(-613.208 -187.819)" fill="#ffb8b8"/>
  <path id="Pfad_36" data-name="Pfad 36" d="M666.13,599.451h23.644v14.887H651.243A14.887,14.887,0,0,1,666.13,599.451Z" transform="translate(-613.208 -187.819)" fill="#2f2e41"/>
  <path id="Pfad_37" data-name="Pfad 37" d="M857.81,727.286l-19.628-2.264a4.818,4.818,0,0,1-4.223-5.42l17.518-131.9a3.753,3.753,0,0,0-.073-1.377L833.8,513.68a4.761,4.761,0,0,1,.754-3.926c2.73-3.764,12.086-12.537,39.914-12.7h.03a4.834,4.834,0,0,1,4.4,2.826l3.712,8.166a3.763,3.763,0,0,0,1.253,1.513c5.11,3.617,29.862,23.918,15.328,68.488C884.9,621.853,866.6,706.9,863.073,723.5a4.791,4.791,0,0,1-4.7,3.814,4.933,4.933,0,0,1-.566-.033Z" transform="translate(-789.066 -330.202)" fill="#2f2e41"/>
  <path id="Pfad_38" data-name="Pfad 38" d="M895.777,387.173a33.4,33.4,0,0,1-19.091,5.9,20.471,20.471,0,0,0,8.114,3.338,67.359,67.359,0,0,1-27.514.155,17.806,17.806,0,0,1-5.76-1.978,7.289,7.289,0,0,1-3.555-4.755c-.6-3.449,2.083-6.582,4.876-8.693a35.967,35.967,0,0,1,30.224-6.04c3.376.873,6.759,2.347,8.952,5.059s2.843,6.892.753,9.684Z" transform="translate(-789.066 -330.202)" fill="#2f2e41"/>
  <path id="Pfad_39" data-name="Pfad 39" d="M879.378,370.088c-2.806-.934-5.693-1.914-7.916-3.864s-3.634-5.139-2.635-7.922c.963-2.681,3.9-4.248,6.738-4.459s5.638.669,8.351,1.537c-1.227-1.854-2.495-5.449-3.6-9.241-2.532-8.652,8.02-16.553,17.011-15.9q.4.029.769.083c9.066,1.323,13.769,4.781,20.1,11.4,7.921,8.284,12.063,19.461,14.837,30.582s4.4,22.564,8.3,33.341,10.483,21.137,20.546,26.622a33.981,33.981,0,0,0,35.26-2.173,30.442,30.442,0,0,1-34.972,34.484c-12.992-2.1-23.4-12.563-28.958-24.491s-7.077-25.281-8.471-38.367-2.807-26.434-8.185-38.445c-2.177-4.861-5.381-9.809-11.107-10.585a6.89,6.89,0,0,0-7.387,3.959c-2.518,6.094,6.1,11.254,3.889,17.061a6.393,6.393,0,0,1-5.692,3.887c-4.164.274-7.584-2.113-10.806-4.416C878.859,368.472,879.378,370.088,879.378,370.088Z" transform="translate(-789.066 -330.202)" fill="#2f2e41"/>
  <path id="Pfad_40" data-name="Pfad 40" d="M1023.14,757.617h-230a1,1,0,0,1,0-2h230a1,1,0,0,1,0,2Z" transform="translate(-789.066 -330.202)" fill="#3f3d56"/>
</svg>
