<svg xmlns="http://www.w3.org/2000/svg" xmlns:xlink="http://www.w3.org/1999/xlink" width="699.126" height="479.275" viewBox="0 0 699.126 479.275">
  <defs>
    <filter id="Pfad_1" x="7.6" y="320.328" width="689.667" height="158.947" filterUnits="userSpaceOnUse">
      <feOffset dy="2" input="SourceAlpha"/>
      <feGaussianBlur stdDeviation="3" result="blur"/>
      <feFlood flood-opacity="0.161"/>
      <feComposite operator="in" in2="blur"/>
      <feComposite in="SourceGraphic"/>
    </filter>
    <linearGradient id="linear-gradient" x1="0.5" y1="1" x2="0.5" gradientUnits="objectBoundingBox">
      <stop offset="0.2" stop-color="gray" stop-opacity="0.4"/>
      <stop offset="0.46" stop-color="gray" stop-opacity="0.502"/>
      <stop offset="1" stop-opacity="0.6"/>
    </linearGradient>
    <filter id="Pfad_3" x="0" y="0" width="699.126" height="397.496" filterUnits="userSpaceOnUse">
      <feOffset input="SourceAlpha"/>
      <feGaussianBlur stdDeviation="3" result="blur-2"/>
      <feFlood flood-opacity="0.161"/>
      <feComposite operator="in" in2="blur-2"/>
      <feComposite in="SourceGraphic"/>
    </filter>
    <linearGradient id="linear-gradient-2" x1="0.5" y1="1" x2="0.5" gradientUnits="objectBoundingBox">
      <stop offset="0" stop-color="gray" stop-opacity="0.251"/>
      <stop offset="0.54" stop-color="gray" stop-opacity="0.122"/>
      <stop offset="1" stop-color="gray" stop-opacity="0.102"/>
    </linearGradient>
  </defs>
  <g id="undraw_working_late_pukg" transform="translate(9.043 9)">
    <g transform="matrix(1, 0, 0, 1, -9.04, -9)" filter="url(#Pfad_1)">
      <path id="Pfad_1-2" data-name="Pfad 1" d="M729.117,607.951c0,27.231-149.9,127.508-337.1,127.508S57.45,628.6,57.45,601.366s147.362,35.467,334.566,35.467S729.117,580.7,729.117,607.951Z" transform="translate(-40.85 -267.18)" fill="#3f3d56"/>
    </g>
    <path id="Pfad_2" data-name="Pfad 2" d="M726.194,396.729v1.092c-.411,11.317-6.714,22.573-18.215,30.521-12.2,8.42-28.563,12.851-45.361,15.681-2.627.442-5.266.841-7.9,1.227-1.344.184-2.682.368-4.014.54-37.394,4.91-75.574,5.849-113.576,6.751-39.751.982-79.539,1.952-119.333,2.455l-7.893.092c-60.378.65-120.732.1-180.889-3.32-18.669-1.056-37.523-2.455-56.033-4.812q-3.959-.485-7.893-1.062c-24.549-3.517-48.368-8.911-70.069-17.669a156.153,156.153,0,0,1-15.012-6.935c-13.631-7.236-25.126-16.386-30.815-27.618a38.738,38.738,0,0,1-3.928-21.308,49.844,49.844,0,0,1,1.369-7.9,70.38,70.38,0,0,1,7.751-18.234c8.862-14.987,22.174-28.422,33.651-42.494,24.5-29.993,40.457-67.89,17.847-98.632C99.4,196.274,90.018,188.534,84.734,179.3a41.562,41.562,0,0,1-5.18-16.215,58.343,58.343,0,0,1-.325-7.9,109.57,109.57,0,0,1,2.3-18.314c3.682-18.854,10.562-39.18,31.809-50.939,14.5-8.028,32.988-10.519,51.731-10.047q3.946.092,7.893.368c7.187.473,14.33,1.344,21.229,2.455,42.617,6.806,81.951,21.026,121.659,33.865,30.232,9.77,61.544,18.909,94.035,23.266,2.627.35,5.254.675,7.893.957,7.616.835,15.3,1.387,23.045,1.614,38.548,1.1,83.522-7.242,109.12-28.919,24.727-20.953,71.1-22.64,104.757-10.126l.5.19q3.8,1.448,7.365,3.118c24.8,11.661,41.414,31.631,43.759,52.529a45.587,45.587,0,0,1,.208,7.819.32.32,0,0,1,0,.08c-1.608,25.709-22.622,47.3-43.961,68.927-2.639,2.67-5.284,5.339-7.9,8.028a282.843,282.843,0,0,0-19.449,21.64,101.512,101.512,0,0,0-7.315,10.495,67.78,67.78,0,0,0-5.2,10.568,43.953,43.953,0,0,0-2.866,11.845,30.975,30.975,0,0,0,3.068,16.939l.055.123c5.7,11.293,17.749,19.3,31.705,26.39,2.571,1.313,5.217,2.59,7.9,3.854,15.135,7.144,31.441,13.778,43.838,22.6a65.727,65.727,0,0,1,9.316,7.856,47.484,47.484,0,0,1,3.289,3.787,33.227,33.227,0,0,1,7.168,20.063C726.194,396.4,726.194,396.563,726.194,396.729Z" transform="translate(-45.11 -75.83)" fill="#6c63ff"/>
    <g transform="matrix(1, 0, 0, 1, -9.04, -9)" filter="url(#Pfad_3)">
      <path id="Pfad_3-2" data-name="Pfad 3" d="M726.194,396.729v1.092c-.411,11.317-6.714,22.573-18.215,30.521-12.2,8.42-28.563,12.851-45.361,15.681-2.627.442-5.266.841-7.9,1.227-1.344.184-2.682.368-4.014.54-37.394,4.91-75.574,5.849-113.576,6.751-39.751.982-79.539,1.952-119.333,2.455l-7.893.092c-60.378.65-120.732.1-180.889-3.32-18.669-1.056-37.523-2.455-56.033-4.812q-3.959-.485-7.893-1.062c-24.549-3.517-48.368-8.911-70.069-17.669a156.153,156.153,0,0,1-15.012-6.935c-13.631-7.236-25.126-16.386-30.815-27.618a38.738,38.738,0,0,1-3.928-21.308,49.844,49.844,0,0,1,1.369-7.9,70.38,70.38,0,0,1,7.751-18.234c8.862-14.987,22.174-28.422,33.651-42.494,24.5-29.993,40.457-67.89,17.847-98.632C99.4,196.274,90.018,188.534,84.734,179.3a41.562,41.562,0,0,1-5.18-16.215,58.343,58.343,0,0,1-.325-7.9,109.57,109.57,0,0,1,2.3-18.314c3.682-18.854,10.562-39.18,31.809-50.939,14.5-8.028,32.988-10.519,51.731-10.047q3.946.092,7.893.368c7.187.473,14.33,1.344,21.229,2.455,42.617,6.806,81.951,21.026,121.659,33.865,30.232,9.77,61.544,18.909,94.035,23.266,2.627.35,5.254.675,7.893.957,7.616.835,15.3,1.387,23.045,1.614,38.548,1.1,83.522-7.242,109.12-28.919,24.727-20.953,71.1-22.64,104.757-10.126l.5.19q3.8,1.448,7.365,3.118c24.8,11.661,41.414,31.631,43.759,52.529a45.587,45.587,0,0,1,.208,7.819.32.32,0,0,1,0,.08c-1.608,25.709-22.622,47.3-43.961,68.927-2.639,2.67-5.284,5.339-7.9,8.028a282.843,282.843,0,0,0-19.449,21.64,101.512,101.512,0,0,0-7.315,10.495,67.78,67.78,0,0,0-5.2,10.568,43.953,43.953,0,0,0-2.866,11.845,30.975,30.975,0,0,0,3.068,16.939l.055.123c5.7,11.293,17.749,19.3,31.705,26.39,2.571,1.313,5.217,2.59,7.9,3.854,15.135,7.144,31.441,13.778,43.838,22.6a65.727,65.727,0,0,1,9.316,7.856,47.484,47.484,0,0,1,3.289,3.787,33.227,33.227,0,0,1,7.168,20.063C726.194,396.4,726.194,396.563,726.194,396.729Z" transform="translate(-36.07 -66.83)" fill="url(#linear-gradient)"/>
    </g>
    <circle id="Ellipse_1" data-name="Ellipse 1" cx="2.301" cy="2.301" r="2.301" transform="translate(145.786 41.77)" fill="#e7effd"/>
    <circle id="Ellipse_2" data-name="Ellipse 2" cx="2.301" cy="2.301" r="2.301" transform="translate(72.078 37.161)" fill="#e7effd"/>
    <circle id="Ellipse_3" data-name="Ellipse 3" cx="0.988" cy="0.988" r="0.988" transform="translate(173.097 43.083)" fill="#e7effd"/>
    <circle id="Ellipse_4" data-name="Ellipse 4" cx="0.988" cy="0.988" r="0.988" transform="translate(99.057 40.782)" fill="#e7effd"/>
    <circle id="Ellipse_5" data-name="Ellipse 5" cx="0.988" cy="0.988" r="0.988" transform="translate(98.075 109.795)" fill="#e7effd"/>
    <circle id="Ellipse_6" data-name="Ellipse 6" cx="0.988" cy="0.988" r="0.988" transform="translate(553.809 57.641)" fill="#e7effd"/>
    <circle id="Ellipse_7" data-name="Ellipse 7" cx="0.988" cy="0.988" r="0.988" transform="translate(219.163 58.549)" fill="#e7effd"/>
    <circle id="Ellipse_8" data-name="Ellipse 8" cx="0.988" cy="0.988" r="0.988" transform="translate(505.11 56.573)" fill="#e7effd"/>
    <circle id="Ellipse_9" data-name="Ellipse 9" cx="0.988" cy="0.988" r="0.988" transform="translate(629.494 59.537)" fill="#e7effd"/>
    <path id="Pfad_6" data-name="Pfad 6" d="M748.185,509.837v1.092c-.313,11.4-6.628,22.775-18.215,30.778-12.2,8.42-28.563,12.852-45.36,15.681-2.627.442-5.266.841-7.9,1.227-1.344.184-2.682.368-4.014.54-9.206,1.228-18.461,2.167-27.747,2.952-12.459,1.056-24.979,1.786-37.511,2.326-16.092.706-32.214,1.1-48.318,1.5-31.478.773-62.981,1.547-94.514,2.08l-11.188.184-13.649.184-7.892.092c-49.712.528-99.35.258-148.9-1.767q-4.946-.2-9.875-.43-11.047-.485-22.094-1.123c-14.76-.835-29.637-1.89-44.354-3.455q-5.855-.614-11.661-1.356-3.959-.485-7.892-1.062-4.382-.614-8.727-1.338c-21.48-3.511-42.218-8.592-61.342-16.337A159.147,159.147,0,0,1,102,534.656V426.641c2.725-3.161,5.431-6.321,8.034-9.519,3.13-3.842,6.137-7.8,8.9-11.863h59.409V368.65h104.64v80.484H453.419V385.306H650.057a68.731,68.731,0,0,0-5.149,10.219v.344h-.227a43.951,43.951,0,0,0-2.866,11.845,30.974,30.974,0,0,0,3.069,16.939v.258l.055.123c5.7,11.293,17.749,19.3,31.705,26.39,2.572,1.313,5.217,2.59,7.9,3.854,14.981,7.07,31.122,13.649,43.47,22.34l.368.258a66.058,66.058,0,0,1,9.089,7.6c.092.086.172.172.252.258a47.419,47.419,0,0,1,3.29,3.787,33.27,33.27,0,0,1,7.168,19.8C748.185,509.506,748.185,509.672,748.185,509.837Z" transform="translate(-67.102 -188.939)" fill="#6c63ff"/>
    <path id="Pfad_7" data-name="Pfad 7" d="M748.185,509.837v1.092c-.313,11.4-6.628,22.775-18.215,30.778-12.2,8.42-28.563,12.852-45.36,15.681-2.627.442-5.266.841-7.9,1.227-1.344.184-2.682.368-4.014.54-9.206,1.228-18.461,2.167-27.747,2.952-12.459,1.056-24.979,1.786-37.511,2.326-16.092.706-32.214,1.1-48.318,1.5-31.478.773-62.981,1.547-94.514,2.08l-11.188.184-13.649.184-7.892.092c-49.712.528-99.35.258-148.9-1.767q-4.946-.2-9.875-.43-11.047-.485-22.094-1.123c-14.76-.835-29.637-1.89-44.354-3.455q-5.855-.614-11.661-1.356-3.959-.485-7.892-1.062-4.382-.614-8.727-1.338c-21.48-3.511-42.218-8.592-61.342-16.337A159.147,159.147,0,0,1,102,534.656V426.641c2.725-3.161,8.034-9.519,8.034-9.519s6.137-7.8,8.9-11.863h59.409V368.65h104.64v80.484H453.419V385.306H650.057a68.731,68.731,0,0,0-5.149,10.219v.344h-.227a43.951,43.951,0,0,0-2.866,11.845,30.974,30.974,0,0,0,3.069,16.939v.258l.055.123c5.7,11.293,17.749,19.3,31.705,26.39,2.572,1.313,5.217,2.59,7.9,3.854,14.981,7.07,31.122,13.649,43.47,22.34l.368.258a66.058,66.058,0,0,1,9.089,7.6c.092.086.172.172.252.258a47.419,47.419,0,0,1,3.29,3.787,33.27,33.27,0,0,1,7.168,19.8C748.185,509.506,748.185,509.672,748.185,509.837Z" transform="translate(-67.102 -188.939)" opacity="0.3"/>
    <rect id="Rechteck_1" data-name="Rechteck 1" width="17.553" height="11.845" transform="translate(54.415 231.246)" opacity="0.4"/>
    <rect id="Rechteck_2" data-name="Rechteck 2" width="17.553" height="11.845" transform="translate(82.499 231.246)" opacity="0.4"/>
    <rect id="Rechteck_3" data-name="Rechteck 3" width="17.553" height="11.845" transform="translate(404.969 206.899)" opacity="0.4"/>
    <rect id="Rechteck_4" data-name="Rechteck 4" width="17.553" height="11.845" transform="translate(452.354 206.899)" opacity="0.4"/>
    <rect id="Rechteck_5" data-name="Rechteck 5" width="17.553" height="11.845" transform="translate(503.244 206.899)" opacity="0.4"/>
    <rect id="Rechteck_6" data-name="Rechteck 6" width="17.553" height="11.845" transform="translate(404.969 243.097)" opacity="0.4"/>
    <rect id="Rechteck_7" data-name="Rechteck 7" width="17.553" height="11.845" transform="translate(452.354 243.097)" opacity="0.4"/>
    <rect id="Rechteck_8" data-name="Rechteck 8" width="17.553" height="11.845" transform="translate(503.244 243.097)" fill="#6c63ff"/>
    <rect id="Rechteck_9" data-name="Rechteck 9" width="17.553" height="11.845" transform="translate(404.969 279.288)" opacity="0.4"/>
    <rect id="Rechteck_10" data-name="Rechteck 10" width="17.553" height="11.845" transform="translate(452.354 279.288)" opacity="0.4"/>
    <rect id="Rechteck_11" data-name="Rechteck 11" width="17.553" height="11.845" transform="translate(503.244 279.288)" opacity="0.4"/>
    <rect id="Rechteck_12" data-name="Rechteck 12" width="17.553" height="11.845" transform="translate(404.969 315.485)" opacity="0.4"/>
    <rect id="Rechteck_13" data-name="Rechteck 13" width="17.553" height="11.845" transform="translate(452.354 315.485)" opacity="0.4"/>
    <rect id="Rechteck_14" data-name="Rechteck 14" width="17.553" height="11.845" transform="translate(503.244 315.485)" opacity="0.4"/>
    <rect id="Rechteck_15" data-name="Rechteck 15" width="17.553" height="11.845" transform="translate(404.969 351.683)" opacity="0.4"/>
    <rect id="Rechteck_16" data-name="Rechteck 16" width="17.553" height="11.845" transform="translate(452.354 351.683)" opacity="0.4"/>
    <rect id="Rechteck_17" data-name="Rechteck 17" width="17.553" height="11.845" transform="translate(503.244 351.683)" opacity="0.4"/>
    <path id="Pfad_8" data-name="Pfad 8" d="M978.415,413a43.968,43.968,0,0,0-2.866,11.845h-9.63V413Z" transform="translate(-400.812 -206.07)" opacity="0.4"/>
    <rect id="Rechteck_18" data-name="Rechteck 18" width="17.553" height="11.845" transform="translate(565.108 243.097)" fill="#6c63ff"/>
    <rect id="Rechteck_19" data-name="Rechteck 19" width="17.553" height="11.845" transform="translate(565.108 279.288)" opacity="0.4"/>
    <rect id="Rechteck_20" data-name="Rechteck 20" width="17.553" height="11.845" transform="translate(565.108 315.485)" opacity="0.4"/>
    <rect id="Rechteck_21" data-name="Rechteck 21" width="17.553" height="11.845" transform="translate(565.108 351.683)" opacity="0.4"/>
    <rect id="Rechteck_22" data-name="Rechteck 22" width="17.553" height="11.845" transform="translate(151.819 193.078)" opacity="0.4"/>
    <rect id="Rechteck_23" data-name="Rechteck 23" width="17.553" height="11.845" transform="translate(151.819 219.634)" fill="#6c63ff"/>
    <rect id="Rechteck_24" data-name="Rechteck 24" width="17.553" height="11.845" transform="translate(151.819 246.184)" opacity="0.4"/>
    <rect id="Rechteck_25" data-name="Rechteck 25" width="17.553" height="11.845" transform="translate(151.819 272.739)" opacity="0.4"/>
    <rect id="Rechteck_26" data-name="Rechteck 26" width="17.553" height="11.845" transform="translate(151.819 299.289)" opacity="0.4"/>
    <rect id="Rechteck_27" data-name="Rechteck 27" width="17.553" height="11.845" transform="translate(151.819 325.845)" opacity="0.4"/>
    <rect id="Rechteck_28" data-name="Rechteck 28" width="17.553" height="11.845" transform="translate(151.819 352.395)" opacity="0.4"/>
    <rect id="Rechteck_29" data-name="Rechteck 29" width="17.553" height="11.845" transform="translate(54.415 262.202)" opacity="0.4"/>
    <rect id="Rechteck_30" data-name="Rechteck 30" width="17.553" height="11.845" transform="translate(82.499 262.202)" opacity="0.4"/>
    <rect id="Rechteck_31" data-name="Rechteck 31" width="17.553" height="11.845" transform="translate(54.415 293.158)" opacity="0.4"/>
    <rect id="Rechteck_32" data-name="Rechteck 32" width="17.553" height="11.845" transform="translate(82.499 293.158)" opacity="0.4"/>
    <rect id="Rechteck_33" data-name="Rechteck 33" width="17.553" height="11.845" transform="translate(54.415 324.114)" opacity="0.4"/>
    <rect id="Rechteck_34" data-name="Rechteck 34" width="17.553" height="11.845" transform="translate(82.499 324.114)" opacity="0.4"/>
    <rect id="Rechteck_35" data-name="Rechteck 35" width="87.75" height="10.587" transform="translate(250.973 273.998)" opacity="0.4"/>
    <rect id="Rechteck_36" data-name="Rechteck 36" width="87.75" height="10.587" transform="translate(250.973 307.777)" opacity="0.4"/>
    <rect id="Rechteck_37" data-name="Rechteck 37" width="87.75" height="10.587" transform="translate(250.973 341.563)" opacity="0.4"/>
    <path id="Pfad_13" data-name="Pfad 13" d="M335.26,228.86h-1.51v-1.51h-.27v1.51h-1.51v.27h1.51v1.51h.27v-1.51h1.51Z" transform="translate(-128.248 -87.82)" fill="#e7effd"/>
    <path id="Pfad_14" data-name="Pfad 14" d="M846.54,177.73h-1.51v-1.51h-.276v1.51h-1.5V178h1.5v1.51h.276V178h1.51Z" transform="translate(-325.743 -68.069)" fill="#e7effd"/>
    <path id="Pfad_15" data-name="Pfad 15" d="M393.53,167.78h-1.51v-1.51h-.276v1.51h-1.5v.276h1.5v1.5h.276v-1.5h1.51Z" transform="translate(-150.756 -64.226)" fill="#e7effd"/>
    <circle id="Ellipse_10" data-name="Ellipse 10" cx="0.988" cy="0.988" r="0.988" transform="translate(239.484 199.062)" fill="#e7effd"/>
    <circle id="Ellipse_11" data-name="Ellipse 11" cx="0.988" cy="0.988" r="0.988" transform="translate(464.825 110.784)" fill="#e7effd"/>
    <circle id="Ellipse_12" data-name="Ellipse 12" cx="0.988" cy="0.988" r="0.988" transform="translate(564.12 157.58)" fill="#e7effd"/>
    <circle id="Ellipse_13" data-name="Ellipse 13" cx="0.988" cy="0.988" r="0.988" transform="translate(408.614 166.056)" fill="#e7effd"/>
    <path id="Pfad_16" data-name="Pfad 16" d="M612.152,466.133s-21.057,5.094-29.391,14.625c-2.792,3.185-6.935,5.481-11.213,7.119V473.5c4.818-8.089,9.672-17.086,9.672-17.086.221-.442,1.976-6.647,1.976-6.647,3.952-3.105-.221-13.956-.221-13.956s2.418-6.868,1.1-8.2-.221-4.873.877-6.426.878-3.547.878-4.873-1.755-3.326-4.609-4.431.221-2.878,1.976-3.326,2.2-4.652.221-6.868.221-3.541,1.313-5.978-3.529-1.995-3.529-1.995v-22.4h0s-1.319-7.309-2.633-20.161-6.364-14.177-6.364-14.177a57.811,57.811,0,0,1-7.9-3.106,54.119,54.119,0,0,0-8.334-3.1,42.9,42.9,0,0,1-10.752-1.485,32.856,32.856,0,0,0-7.334-1.59l-.792-.393a28.741,28.741,0,0,1-13.312-14.116c-.135-.307-.258-.614-.38-.908a30.973,30.973,0,0,0,3.5-4.652v2.565h0v.055c3.5-6.18,13.649-7.592,14.613-14.65a7.382,7.382,0,0,0,.068-.97v-.755c-.129-1.97-.8-3.934-.933-5.922a11.365,11.365,0,0,1,0-1.712v.037c.454-5.481,4.584-10.249,6.475-15.57a18.665,18.665,0,0,0,.988-4.431v-.043c.049-.454.08-.914.092-1.375v-1.3a20.731,20.731,0,0,0-6.843-14.975c-3.5-3.038-8.12-4.947-10.544-8.917-1.129-1.841-1.682-4.026-2.915-5.806-2.32-3.363-6.579-4.732-10.611-5.217s-8.175-.325-12.029-1.59c-2.737-.9-5.217-2.486-7.978-3.283a15.263,15.263,0,0,0-16.393,5.91c-1.455,2.123-2.406,4.664-4.37,6.321-4.02,3.4-10.838,1.927-14.361,5.843-1.933,2.154-2.154,5.088-1.921,8.083v.111a6.814,6.814,0,0,0,.067.693v.325a1.013,1.013,0,0,0,.043.35c.123,1.074.276,2.142.411,3.173a4.113,4.113,0,0,0,.055.473l.11.964a6.732,6.732,0,0,0,.061.7c.025.233.043.614.061.871a6.064,6.064,0,0,0,.043.687,47.357,47.357,0,0,1-5.033,23.628c-3.32,6.512-8.255,12.514-9.114,19.786a21.321,21.321,0,0,0-.1,3.59v.423c0,.141.037.43.055.644s.049.5.08.743a3.341,3.341,0,0,0,.055.423c.043.325.092.651.147.982l.037.209c.871,4.959,2.848,9.82,3.9,14.828a40.09,40.09,0,0,1,.786,5.6.081.081,0,0,0,0,.037c.037.614.068,1.2.086,1.8v2.455A38.955,38.955,0,0,1,446.882,335c-3.069.442-12.072,8.42-11.415,10.433s-4.026,15.957-4.155,16.38h0l-7.365,50.939s-3.91,3.768-2.688,6.2-.239,6.647-.239,6.647-6.6,2.878-5.137,4.652.8,5.094-.209,7.309-2.657,6.2,0,6.868.454,9.31.454,9.31,9.261-1.068,8.592,4.431c-.221,1.749,6.475,6.561,9.267,8.488v26.476a80.919,80.919,0,0,1-10.967-3.725c-5.7-2.657-37.732-7.751-44.753,7.537s9.654,35.67,13.821,37.885c0,0,3.952,3.1,4.83,4.652s5.922,1.995,5.922,1.995,5.266,2.455,6.579,3.762c.97.982,8.991,3.529,18.5,5.523h0s-7.678,17.675,4.849,16.221,18.626-7.622,27.458-7.622c3.529,0,10.083-.5,16.681-1.086a44.369,44.369,0,0,1,4.91,1.16,63.077,63.077,0,0,0,11.4,2.455s9.875,5.315,15.14,3.983a3.345,3.345,0,0,0,1.191-.614h.123a6.9,6.9,0,0,0,3.173-2.719c6.585.675,14.116,1.632,16.914,2.725,5.456,2.105,44.483-.81,44.483-.81s25.212.5,32.435,2.682,4.658-22.309-8.672-25.065a54.69,54.69,0,0,0-10.808-1.068,24.261,24.261,0,0,0,2.522-3.069c4.8-.436,7.978-.706,7.978-.706s12.722-6.2,19.964-9.973a45.55,45.55,0,0,0,12.275-9.746s6.358-3.989,8.991-5.523,3.946-6.647,3.946-6.647C662.827,460.143,612.152,466.133,612.152,466.133Zm-57.126-56.7V407.2c.712.5.608,1.3,0,2.228Zm.209,15.668c.534.7,1.049,1.338,1.418,1.841,1.418,1.841-1.148,2.7-.964,5.751.043.681.1,1.632.166,2.688h0c-.27-4.4-.491-8.021-.62-10.286Z" transform="translate(-173.158 -132.776)" fill="url(#linear-gradient-2)"/>
    <path id="Pfad_17" data-name="Pfad 17" d="M441.068,660.75s-12.275-2.854-17.988-5.487-37.732-7.678-44.753,7.463,9.654,35.314,13.821,37.511S436.9,672.368,436.9,672.368l32.012,13.5,6.137-20.953Z" transform="translate(-173.182 -298.505)" fill="#65617d"/>
    <rect id="Rechteck_38" data-name="Rechteck 38" width="139.359" height="48.478" rx="24.239" transform="translate(281.432 366.412)" fill="#65617d"/>
    <path id="Pfad_18" data-name="Pfad 18" d="M643.059,697.1a24.186,24.186,0,0,1-4.038,13.4,24.535,24.535,0,0,1-3.069,3.744,24.163,24.163,0,0,1-17.141,7.1H527.942a24.242,24.242,0,1,1,0-48.484h90.874A24.242,24.242,0,0,1,643.059,697.1Z" transform="translate(-222.268 -306.448)" opacity="0.1"/>
    <path id="Pfad_19" data-name="Pfad 19" d="M548.954,714.66s-13.974,3.59-25.378,3.431-64.742,22-64.742,22-7.678,17.5,4.848,16.055,18.627-7.524,27.458-7.524,36.615-3.069,36.615-3.069l26.734-19.75Z" transform="translate(-204.038 -322.594)" fill="#fbbebe"/>
    <path id="Pfad_20" data-name="Pfad 20" d="M579.97,406.121l-25.065,4.94-1.626.325s-19.817-5.266-20.474-5.708S514.16,381,514.16,381s9.1.1,16.239-4.02c.258-.147.509-.307.761-.46a15.835,15.835,0,0,0,6.751-8.279c.129-.362.239-.736.344-1.129a22.269,22.269,0,0,0-.209-10.789c-2.455-10.231,3.191-13.048,10.672-12.8,10.808.356,25.519,7.1,25.519,7.1a29.988,29.988,0,0,0,2.314,10c.117.295.246.614.381.9a28.562,28.562,0,0,0,13.312,13.962l.792.393c.8.38,1.639.743,2.51,1.068C612.657,384.186,579.97,406.121,579.97,406.121Z" transform="translate(-226.309 -179.227)" fill="#fbbebe"/>
    <path id="Pfad_21" data-name="Pfad 21" d="M591.646,361.523a31.613,31.613,0,0,1-39.021,6.72c1.08-3.142,1.283-7.052.135-11.919-5.922-25.009,36.21-5.7,36.21-5.7A30.4,30.4,0,0,0,591.646,361.523Z" transform="translate(-240.999 -179.229)" opacity="0.1"/>
    <path id="Pfad_22" data-name="Pfad 22" d="M589.6,316.767a31.373,31.373,0,0,1-4.787,16.712,30.938,30.938,0,0,1-3.5,4.609,31.411,31.411,0,0,1-21.395,10.188c-.614.043-1.27.061-1.909.061A31.588,31.588,0,1,1,589.6,316.748Z" transform="translate(-231.044 -156.689)" fill="#fbbebe"/>
    <path id="Pfad_23" data-name="Pfad 23" d="M579.97,426.282l-25.065,4.94-1.626.325s-19.817-5.266-20.474-5.708-18.645-24.678-18.645-24.678,9.1.1,16.239-4.02c.258-.147.509-.307.761-.46a29.422,29.422,0,0,0,21.382,9.347,30.881,30.881,0,0,0,4.48-.325c3.523-.54,7.076-.89,10.624-1.227,6.794-.712,17.184-2.774,22.64-8.776l.792.393c.8.38,1.639.743,2.51,1.068C612.657,404.347,579.97,426.282,579.97,426.282Z" transform="translate(-226.309 -199.388)" opacity="0.1"/>
    <path id="Pfad_24" data-name="Pfad 24" d="M589.627,490.553c.215,4.83,3.731,59.231,3.731,59.231H483.888l.743-34.252.614-27.4.2-8.991L486.319,448l-3.173-2.8L465.9,430h0c.129-.405,4.805-14.269,4.155-16.221s8.34-9.869,11.415-10.311a39.985,39.985,0,0,0,5.143-1.565c5.174-1.841,12.078-4.492,12.839-4.075,1.074.577,11.839-.424,12.275-.466h0a29.362,29.362,0,0,0,22.131,10.206,30.082,30.082,0,0,0,4.462-.356c3.523-.54,7.076-.89,10.624-1.258,7.138-.743,18.234-2.983,23.432-9.7a33.212,33.212,0,0,1,7.334,1.571,43.538,43.538,0,0,0,10.752,1.473,54.568,54.568,0,0,1,8.335,3.069,58.3,58.3,0,0,0,7.9,3.069s5.045,1.313,6.364,14.036,2.651,19.964,2.651,19.964l-26.083,22.591S589.412,485.7,589.627,490.553Z" transform="translate(-207.667 -199.604)" fill="#6c63ff"/>
    <path id="Pfad_25" data-name="Pfad 25" d="M418.316,524.175l3.836,6.143,14.367,5.063,9.875-18.007-9.1-6.143-14.588-5.7-8.334,4.824Z" transform="translate(-160.077 -195.274)" fill="#fbbebe"/>
    <path id="Pfad_26" data-name="Pfad 26" d="M664.478,644.882s20.4-1.534,28.741-10.967,29.391-14.478,29.391-14.478,50.675-5.922,30.686,38.831c0,0-1.313,5.045-3.946,6.579s-8.991,5.487-8.991,5.487l-77.839-6.8Z" transform="translate(-283.616 -285.711)" fill="#65617d"/>
    <path id="Pfad_27" data-name="Pfad 27" d="M679.429,700.974a24.186,24.186,0,0,1-4.038,13.4c-13.1,1.16-42.1,3.885-48.171,5.579-7.457,2.068-22.548-1.534-24.2-1.939l-.153-.037s-2.909-8.825-4.3-14.472c-.614-2.565-.939-4.474-.534-4.615,1.319-.436,13.385-3.732,13.164-1.841s36.21-14.153,36.21-14.153l1.117,14.042C652.229,701.177,679.429,694.88,679.429,700.974Z" transform="translate(-258.639 -310.326)" opacity="0.1"/>
    <path id="Pfad_28" data-name="Pfad 28" d="M717.775,689.649l-1.534,5.707A45.472,45.472,0,0,1,703.967,705c-7.242,3.732-19.964,9.875-19.964,9.875s-46.723,3.946-54.622,6.137-24.353-1.976-24.353-1.976-6.137-18.645-4.824-19.087,13.379-3.725,13.165-1.841,36.21-14.153,36.21-14.153Z" transform="translate(-259.474 -310.735)" fill="#65617d"/>
    <path id="Pfad_29" data-name="Pfad 29" d="M579.92,760.038s22.966,1.6,28.428,3.682,44.483-.8,44.483-.8,25.212.491,32.435,2.651,4.658-22.094-8.672-24.813-32.116,1.283-32.116,1.283-21.2-2.731-23.77-3.069-19.5.153-19.5.153Z" transform="translate(-251.71 -331.941)" fill="#fbbebe"/>
    <path id="Pfad_30" data-name="Pfad 30" d="M432.87,674.72s30.355,2.731,38.7,7.708Z" transform="translate(-194.908 -307.166)" opacity="0.1"/>
    <path id="Pfad_31" data-name="Pfad 31" d="M720.546,642.28s-23.77,5.781-33.086,14.288Z" transform="translate(-293.25 -294.635)" opacity="0.1"/>
    <path id="Pfad_32" data-name="Pfad 32" d="M435.75,663.47c.485.16,13.975,1.927,13.649,3.21S435.75,663.47,435.75,663.47Z" transform="translate(-196.021 -302.82)" opacity="0.1"/>
    <path id="Pfad_33" data-name="Pfad 33" d="M401.21,710.054l1.755,6.585s3.946,3.069,4.824,4.6,5.923,1.976,5.923,1.976,5.266,2.412,6.585,3.725,15.57,5.487,28.956,7.242,38.168,5.045,43.433,6.8a63.216,63.216,0,0,0,11.409,2.412s9.869,5.266,15.135,3.952,14.257-25.23,14.257-25.23-34.657-8.113-35.756-10.746-34.442-14.914-34.442-14.914l-19.743.467Z" transform="translate(-182.679 -315.564)" opacity="0.1"/>
    <path id="Pfad_34" data-name="Pfad 34" d="M399.06,704.074l1.755,6.585s3.952,3.069,4.83,4.6,5.922,1.976,5.922,1.976,5.266,2.412,6.579,3.732,15.576,5.481,28.956,7.236,38.174,5.045,43.439,6.8a63.422,63.422,0,0,0,11.4,2.406s9.875,5.26,15.141,3.946,14.257-25.23,14.257-25.23-34.663-8.113-35.756-10.746-50.018-22.591-50.018-22.591l-15.343-3.51Z" transform="translate(-181.848 -308.927)" fill="#65617d"/>
    <path id="Pfad_35" data-name="Pfad 35" d="M458.989,447.67l-3.836,2.2-7.365,50.454s-3.91,3.731-2.688,6.137-.239,6.579-.239,6.579-6.6,2.854-5.137,4.609.8,5.045-.209,7.236-2.657,6.137,0,6.8.454,9.206.454,9.206,9.261-1.056,8.592,4.382c-.276,2.2,10.47,9.206,10.47,9.206s-12.213-22.156,15.147-19.087l2.351-12.489s2.35-7.033,0-9.206.528-12.612.528-12.612l.516-45.3Z" transform="translate(-196.92 -219.462)" fill="#6c63ff"/>
    <path id="Pfad_36" data-name="Pfad 36" d="M462.44,553.84c.485.8,15.257,2.455,16.221,5.076S462.44,553.84,462.44,553.84Z" transform="translate(-206.33 -260.473)" opacity="0.1"/>
    <path id="Pfad_37" data-name="Pfad 37" d="M454.85,570.928s2.007-6.266,6.751-5.143S454.85,570.928,454.85,570.928Z" transform="translate(-203.399 -265.035)" opacity="0.1"/>
    <path id="Pfad_38" data-name="Pfad 38" d="M450.67,584.286s3.529-8.353,8.347-7.708S450.67,584.286,450.67,584.286Z" transform="translate(-201.784 -269.242)" opacity="0.1"/>
    <path id="Pfad_39" data-name="Pfad 39" d="M685.624,582.367l-1.54,9.206s-15.791,28.962-18.645,29.4-18.412-19.3-18.412-19.3L642.86,582.36l16.4-3.112,7.285-7.2S684.961,573.811,685.624,582.367Z" transform="translate(-276.022 -267.507)" fill="#fbbebe"/>
    <path id="Pfad_40" data-name="Pfad 40" d="M685.754,457.422l5.922,4.167v22.155s4.609-.442,3.511,1.976-3.29,3.725-1.313,5.922,1.534,6.358-.221,6.8-4.824,2.191-1.976,3.29,4.609,3.069,4.609,4.388.221,3.29-.878,4.824-2.191,5.045-.878,6.364-1.1,8.114-1.1,8.114,4.173,10.752.221,13.821c0,0-1.755,6.137-1.976,6.579,0,0,2.768-21.351-24.831-12.324,0,0-.509-8.138-.7-11.151s2.381-3.9.964-5.7-4.965-5.929-3.29-7.021,1.1-3.069.436-4.609-2.977-1.534-.878-3.4,3.345-3.615,2.111-4.492-3.375-3.738-1.669-5.051,1.755-20.4,1.755-20.4S672.6,443.6,685.754,457.422Z" transform="translate(-283.615 -221.752)" fill="#6c63ff"/>
    <path id="Pfad_41" data-name="Pfad 41" d="M695.84,520.69s8.432-2.289,8.709,0S695.84,520.69,695.84,520.69Z" transform="translate(-296.487 -247.275)" opacity="0.1"/>
    <path id="Pfad_42" data-name="Pfad 42" d="M680.4,530.656s11.563-2.891,13-.645S680.4,530.656,680.4,530.656Z" transform="translate(-290.523 -250.939)" opacity="0.1"/>
    <path id="Pfad_43" data-name="Pfad 43" d="M676.21,541.034s17.344-2.412,18.467,1.123S676.21,541.034,676.21,541.034Z" transform="translate(-288.904 -255.217)" opacity="0.1"/>
    <path id="Pfad_44" data-name="Pfad 44" d="M680.4,553.84c.644.159,16.7,1.283,17.019,4.333S680.4,553.84,680.4,553.84Z" transform="translate(-290.523 -260.473)" opacity="0.1"/>
    <rect id="Rechteck_39" data-name="Rechteck 39" width="137.524" height="78.109" rx="10.47" transform="translate(260.872 303.254)" fill="#3f3d56"/>
    <circle id="Ellipse_14" data-name="Ellipse 14" cx="5.069" cy="5.069" r="5.069" transform="translate(324.564 337.242)" fill="#e7effd"/>
    <path id="Pfad_45" data-name="Pfad 45" d="M507.72,491.94s13.183,10.077,23.377,2.4C531.1,494.34,513.863,495.9,507.72,491.94Z" transform="translate(-223.821 -236.563)" opacity="0.1"/>
    <path id="Pfad_46" data-name="Pfad 46" d="M616.48,496.36s13.177,10.071,23.371,2.393C639.851,498.754,622.623,500.325,616.48,496.36Z" transform="translate(-265.832 -238.27)" opacity="0.1"/>
    <path id="Pfad_47" data-name="Pfad 47" d="M571.936,316.8a31.376,31.376,0,0,1-4.787,16.712c-.264-8.795-2.332-17.6-7.119-24.942-4.382-6.751-17.706-18.528-26.863-15.245a6.487,6.487,0,0,0-4,4.3c-.908,3.449,1.749,4.91,3.455,7.629a23.39,23.39,0,0,1,3.191,15.76,21.915,21.915,0,0,1-.46,2.185c-1.442,5.413-4.744,11.605-1.338,16.043,2.375,3.069,7.481,4.161,8.175,7.978a4.656,4.656,0,0,1,.061,1.092c-.16,2.584-2.363,4.861-3.326,7.4-1.129,2.989-.491,5.959.681,8.96,1.522,3.916,3.953,7.874,4.542,12.011s-.681,7.978-2.179,11.863c-1.418,3.682-3.069,7.334-3.621,11.17-1.062,7.291,1.614,15.724-2.976,21.48a3.216,3.216,0,0,1-2.007,1.356c-2.94.307-2.455-4.977-4.805-6.751.252,3.069.491,6.272-.614,9.145s-4.014,5.315-7.058,4.83l-1.049-6.892a19.9,19.9,0,0,1-7.3,4.572,53.239,53.239,0,0,1,7.623-20.621c-7.727,3.719-12.232,11.771-16.251,19.345-2.5,4.732-5.1,9.9-4.222,15.184.356,2.154,1.283,4.2,1.485,6.37s-.583,4.7-2.6,5.524a4.7,4.7,0,0,1-5.088-1.577l-.221-.264c-.123-.16-.239-.325-.35-.491a8.222,8.222,0,0,1-.583-1.043,20.189,20.189,0,0,1-1.228-4.032l-.135-.614c-2.044-8.966-3.885-18.215-2.387-27.286.552-3.339,1.559-6.653,1.436-10.041a18.405,18.405,0,0,0-1.154-5.585c-1.792-5.02-5.241-9.629-7.205-14.686a.433.433,0,0,1-.049-.111c-1.031-2.676-1.54-6.021.368-8.169.982-1.111,2.455-1.669,3.682-2.455,3.817-2.486,5.523-7.205,6.229-11.71a39.83,39.83,0,0,0,.479-6.137c5.174-1.841,12.078-4.492,12.839-4.075,1.074.577,11.839-.423,12.275-.466a16.125,16.125,0,0,0,7.536-8.739c.129-.362.24-.736.344-1.129a31.588,31.588,0,1,1,46.588-27.808Z" transform="translate(-213.377 -156.723)" opacity="0.1"/>
    <path id="Pfad_48" data-name="Pfad 48" d="M535.35,299.679c-1.448,5.413-4.744,11.606-1.332,16.049,2.375,3.069,7.481,4.155,8.163,7.978.546,3.069-2.16,5.6-3.253,8.482-2.6,6.892,4.186,13.668,5.217,20.965,1.123,7.917-4.646,15.128-5.794,23.039-1.062,7.291,1.614,15.718-2.977,21.48a3.179,3.179,0,0,1-2.007,1.356c-2.94.313-2.455-4.971-4.805-6.751.252,3.069.491,6.272-.614,9.144s-4.014,5.309-7.058,4.83l-1.05-6.9a19.877,19.877,0,0,1-7.3,4.572,53.276,53.276,0,0,1,7.616-20.615c-7.727,3.719-12.225,11.771-16.245,19.339-2.51,4.732-5.1,9.905-4.229,15.19.356,2.154,1.283,4.2,1.485,6.371s-.583,4.695-2.6,5.523c-1.841.767-4.069-.252-5.309-1.841a13.837,13.837,0,0,1-2.166-5.573c-2.1-9.157-4.057-18.608-2.529-27.875.552-3.345,1.559-6.659,1.436-10.04-.264-7.408-5.732-13.5-8.4-20.394-1.037-2.682-1.54-6.021.368-8.169.982-1.111,2.455-1.669,3.682-2.455,3.811-2.492,5.523-7.205,6.223-11.71a40.578,40.578,0,0,0-.411-14.656c-1.541-7.211-5.075-14.257-4.2-21.579.859-7.205,5.793-13.146,9.114-19.6a46.362,46.362,0,0,0,4.7-27.1c-.571-4.327-1.571-9.335,1.362-12.569,3.523-3.879,10.341-2.418,14.361-5.781,1.964-1.639,2.915-4.161,4.37-6.26a15.343,15.343,0,0,1,16.393-5.855c2.762.792,5.241,2.363,7.978,3.253,3.854,1.228,7.978,1.092,12.029,1.577s8.291,1.841,10.611,5.161c1.227,1.768,1.786,3.922,2.915,5.751,2.424,3.928,7.046,5.818,10.544,8.832a20.462,20.462,0,0,1,5.757,21.855c-2.086,5.812-6.917,10.955-6.505,17.117.166,2.535,1.227,5.02.9,7.53-.97,6.99-11.115,8.383-14.619,14.508.282-10.04-1.645-20.382-7.125-28.8-4.382-6.751-17.706-18.535-26.863-15.251a6.512,6.512,0,0,0-4,4.3c-.908,3.443,1.749,4.91,3.455,7.629A23.2,23.2,0,0,1,535.35,299.679Z" transform="translate(-213.376 -134.52)" fill="#3f3d56"/>
    <g id="Gruppe_1" data-name="Gruppe 1" transform="translate(267.322 116.982)" opacity="0.2">
      <path id="Pfad_49" data-name="Pfad 49" d="M496.376,384.187a40.234,40.234,0,0,0-.877-9.39c-1.307-6.137-4.044-12.146-4.3-18.307-.356,6.861,2.854,13.5,4.3,20.253A40.3,40.3,0,0,1,496.376,384.187Z" transform="translate(-484.752 -301.224)"/>
      <path id="Pfad_50" data-name="Pfad 50" d="M530.319,480.951c.534-.976,1.086-1.945,1.682-2.891-7.721,3.719-12.225,11.771-16.245,19.345-2.326,4.376-4.713,9.138-4.357,14.011.295-4.18,2.351-8.255,4.357-12.041C519.474,492.372,523.611,484.97,530.319,480.951Z" transform="translate(-492.55 -348.183)"/>
      <path id="Pfad_51" data-name="Pfad 51" d="M505.743,532.661a4.658,4.658,0,0,1-2.565,3.848c-1.841.761-4.069-.251-5.3-1.841A13.9,13.9,0,0,1,495.7,529.1c-1.5-6.542-2.921-13.244-3.069-19.915-.147,7.322,1.411,14.7,3.069,21.892a13.815,13.815,0,0,0,2.173,5.573c1.24,1.583,3.443,2.6,5.3,1.841,2.019-.829,2.811-3.351,2.608-5.523A.745.745,0,0,1,505.743,532.661Z" transform="translate(-485.312 -360.204)"/>
      <path id="Pfad_52" data-name="Pfad 52" d="M568.694,334.2a22.279,22.279,0,0,1-.712,4.664c-1.068,4.008-3.154,8.451-2.78,12.275.294-3.339,1.89-6.972,2.78-10.317A22.185,22.185,0,0,0,568.694,334.2Z" transform="translate(-513.33 -292.614)"/>
      <path id="Pfad_53" data-name="Pfad 53" d="M513.867,278.739a46.071,46.071,0,0,0-.38-7c-.227-1.706-.516-3.523-.614-5.3a38.28,38.28,0,0,0,.614,7.273,45.929,45.929,0,0,1,.38,5.026Z" transform="translate(-493.123 -266.44)"/>
      <path id="Pfad_54" data-name="Pfad 54" d="M578.478,384.093a.212.212,0,0,0-.043-.153c-.466,2.283-2.344,4.37-3.21,6.665a9.347,9.347,0,0,0-.54,4.3,8.825,8.825,0,0,1,.54-2.32C576.312,389.691,579.018,387.137,578.478,384.093Z" transform="translate(-516.989 -311.827)"/>
      <path id="Pfad_55" data-name="Pfad 55" d="M490.008,464.89c-.27-7.408-5.732-13.5-8.4-20.394a13.977,13.977,0,0,1-.859-3.375,11.4,11.4,0,0,0,.859,5.352c2.627,6.8,7.942,12.784,8.371,20.026C490.008,465.964,490.026,465.423,490.008,464.89Z" transform="translate(-480.709 -333.914)"/>
      <path id="Pfad_56" data-name="Pfad 56" d="M590.456,308.045c-4.388-6.751-17.706-18.535-26.863-15.251a6.518,6.518,0,0,0-4.008,4.3,4.647,4.647,0,0,0-.067,2.308,1.278,1.278,0,0,1,.068-.331,6.506,6.506,0,0,1,4.008-4.3c9.157-3.283,22.475,8.518,26.863,15.251,4.959,7.622,7,16.822,7.138,25.948C597.723,326.18,595.765,316.2,590.456,308.045Z" transform="translate(-511.107 -276.401)"/>
      <path id="Pfad_57" data-name="Pfad 57" d="M636.218,341.188c-.964,6.972-11.047,8.377-14.588,14.465v2.013c3.5-6.137,13.649-7.518,14.613-14.508a8.325,8.325,0,0,0,0-2.068A.544.544,0,0,1,636.218,341.188Z" transform="translate(-535.143 -295.275)"/>
      <path id="Pfad_58" data-name="Pfad 58" d="M650.43,297.6c-2.086,5.818-6.917,10.955-6.506,17.123v.27c.454-5.431,4.585-10.145,6.475-15.417a19.322,19.322,0,0,0,1.074-7.512A18.757,18.757,0,0,1,650.43,297.6Z" transform="translate(-543.745 -276.336)"/>
      <path id="Pfad_59" data-name="Pfad 59" d="M565.512,495.333a3.192,3.192,0,0,1-2.007,1.362c-2.94.313-2.455-4.971-4.805-6.751.061.7.117,1.405.153,2.111,2.185,1.89,1.78,6.917,4.652,6.61a3.161,3.161,0,0,0,2.007-1.356c2.621-3.29,2.872-7.445,2.8-11.759C568.25,489.146,567.728,492.577,565.512,495.333Z" transform="translate(-510.835 -351.077)"/>
      <path id="Pfad_60" data-name="Pfad 60" d="M547.987,504.925c-1.117,2.878-4.014,5.315-7.064,4.83q-.522-3.443-1.043-6.9a20.018,20.018,0,0,1-6.941,4.437c-.135.7-.264,1.405-.368,2.111a19.9,19.9,0,0,0,7.309-4.572q.522,3.455,1.043,6.9c3.069.479,5.947-1.952,7.064-4.83a15.722,15.722,0,0,0,.8-6.242A13.275,13.275,0,0,1,547.987,504.925Z" transform="translate(-500.742 -356.913)"/>
      <path id="Pfad_61" data-name="Pfad 61" d="M574.472,453.932a35.085,35.085,0,0,0-.264,5.591,27.989,27.989,0,0,1,.264-3.615c1.1-7.543,6.383-14.447,5.9-21.928C579.953,440.743,575.472,447.058,574.472,453.932Z" transform="translate(-516.818 -331.156)"/>
    </g>
    <path id="Pfad_62" data-name="Pfad 62" d="M871.748,637s-4.167,19.412,14.38,21.713l1.148-2.154S872.914,643.057,871.748,637Z" transform="translate(-364.281 -292.596)" fill="#6c63ff"/>
    <path id="Pfad_63" data-name="Pfad 63" d="M896.815,650.289l-4.3.914-.43.092s-11.507-9.341-11.36-30.2a52.151,52.151,0,0,0,5.493,8.7C890.77,635.829,895.956,643.888,896.815,650.289Z" transform="translate(-367.905 -286.454)" fill="#6c63ff"/>
    <path id="Pfad_64" data-name="Pfad 64" d="M902.866,647.774a2.719,2.719,0,0,1-2.32.3c-11.047-2.59-7.334-38.665-7.334-38.665.614.289,1.283,4.91,3.83,10.8C901.51,630.639,906.42,645.159,902.866,647.774Z" transform="translate(-372.495 -281.938)" fill="#6c63ff"/>
    <path id="Pfad_65" data-name="Pfad 65" d="M937.4,637s.718,19.412-17.829,21.713l-1.148-2.154S936.249,643.057,937.4,637Z" transform="translate(-382.464 -292.596)" fill="#6c63ff"/>
    <path id="Pfad_66" data-name="Pfad 66" d="M928.381,621.1c.135,20.867-14.815,30.2-14.815,30.2l-.429-.092-4.3-.914c.853-6.4,6.051-14.459,10.6-20.492A46.638,46.638,0,0,1,928.381,621.1Z" transform="translate(-378.763 -286.454)" fill="#6c63ff"/>
    <path id="Pfad_67" data-name="Pfad 67" d="M911.389,645.9a6.864,6.864,0,0,1-2.455,1.89h0a4.7,4.7,0,0,1-.9.3c-2.725.614-3.682-1.325-3.523-4.664.258-5.947,4-16.257,7.365-23.935,2.418-5.56,6.364-9.771,6.953-10.047C918.791,609.409,918.625,637.512,911.389,645.9Z" transform="translate(-377.084 -281.95)" fill="#6c63ff"/>
    <path id="Pfad_68" data-name="Pfad 68" d="M906.885,588.77s-12.367,43.857-1.724,50.473S909.616,592.655,906.885,588.77Z" transform="translate(-375.673 -273.966)" fill="#6c63ff"/>
    <path id="Pfad_69" data-name="Pfad 69" d="M871.748,637s-4.167,19.412,14.38,21.713l1.148-2.154S872.914,643.057,871.748,637Z" transform="translate(-364.281 -292.596)" opacity="0.1"/>
    <path id="Pfad_70" data-name="Pfad 70" d="M896.815,650.289l-4.3.914-.43.092s-11.507-9.341-11.36-30.2a52.151,52.151,0,0,0,5.493,8.7C890.77,635.829,895.956,643.888,896.815,650.289Z" transform="translate(-367.905 -286.454)" opacity="0.1"/>
    <path id="Pfad_71" data-name="Pfad 71" d="M902.866,647.774a2.719,2.719,0,0,1-2.32.3c-11.047-2.59-7.334-38.665-7.334-38.665.614.289,1.283,4.91,3.83,10.8C901.51,630.639,906.42,645.159,902.866,647.774Z" transform="translate(-372.495 -281.938)" opacity="0.1"/>
    <path id="Pfad_72" data-name="Pfad 72" d="M937.4,637s.718,19.412-17.829,21.713l-1.148-2.154S936.249,643.057,937.4,637Z" transform="translate(-382.464 -292.596)" opacity="0.1"/>
    <path id="Pfad_73" data-name="Pfad 73" d="M928.381,621.1c.135,20.867-14.815,30.2-14.815,30.2l-.429-.092-4.3-.914c.853-6.4,6.051-14.459,10.6-20.492A46.638,46.638,0,0,1,928.381,621.1Z" transform="translate(-378.763 -286.454)" opacity="0.1"/>
    <path id="Pfad_74" data-name="Pfad 74" d="M911.389,645.9a6.864,6.864,0,0,1-2.455,1.89h0a4.7,4.7,0,0,1-.9.3c-2.725.614-3.682-1.325-3.523-4.664.258-5.947,4-16.257,7.365-23.935,2.418-5.56,6.364-9.771,6.953-10.047C918.791,609.409,918.625,637.512,911.389,645.9Z" transform="translate(-377.084 -281.95)" opacity="0.1"/>
    <path id="Pfad_75" data-name="Pfad 75" d="M906.885,588.77s-12.367,43.857-1.724,50.473S909.616,592.655,906.885,588.77Z" transform="translate(-375.673 -273.966)" opacity="0.1"/>
    <path id="Pfad_76" data-name="Pfad 76" d="M871.932,637s-2.455,19.412,16.1,21.713l1.148-2.154S873.1,643.057,871.932,637Z" transform="translate(-364.465 -292.596)" fill="#6c63ff"/>
    <path id="Pfad_77" data-name="Pfad 77" d="M898.536,650.289l-4.3.914-.436.092s-13.232-9.341-13.085-30.2c0,0,3.388,3.633,7.217,8.7C892.49,635.829,897.677,643.888,898.536,650.289Z" transform="translate(-367.901 -286.454)" fill="#6c63ff"/>
    <path id="Pfad_78" data-name="Pfad 78" d="M903.079,655.762l-4.3.914c-4.093-3.59-5.714-12.962-6.3-21.407C897.034,641.3,902.22,649.361,903.079,655.762Z" transform="translate(-372.444 -291.927)" opacity="0.1"/>
    <path id="Pfad_79" data-name="Pfad 79" d="M904.877,647.774a2.718,2.718,0,0,1-2.32.3c-11.078-2.59-9.059-38.665-9.059-38.665.614.289,3.007,4.91,5.524,10.8C903.521,630.639,908.431,645.159,904.877,647.774Z" transform="translate(-372.782 -281.938)" fill="#6c63ff"/>
    <path id="Pfad_80" data-name="Pfad 80" d="M938.482,637s2.455,19.412-16.1,21.713l-1.148-2.154S937.334,643.057,938.482,637Z" transform="translate(-383.549 -292.596)" fill="#6c63ff"/>
    <path id="Pfad_81" data-name="Pfad 81" d="M929.466,621.1c.135,20.867-13.091,30.2-13.091,30.2l-.43-.092-4.3-.914c.859-6.4,6.051-14.459,10.605-20.492C926.073,624.721,929.466,621.1,929.466,621.1Z" transform="translate(-379.849 -286.454)" fill="#6c63ff"/>
    <path id="Pfad_82" data-name="Pfad 82" d="M922.237,635.27c-.552,7.88-1.995,16.57-5.493,20.6a7.106,7.106,0,0,1-.8.8l-4.3-.915C912.479,649.361,917.683,641.3,922.237,635.27Z" transform="translate(-379.849 -291.928)" opacity="0.1"/>
    <path id="Pfad_83" data-name="Pfad 83" d="M914.2,645.9a6.859,6.859,0,0,1-2.455,1.89h0a4.752,4.752,0,0,1-.909.3c-2.725.614-3.682-1.325-3.522-4.664.264-5.947,4-16.257,7.365-23.935,2.418-5.56,4.64-9.771,5.229-10.047C919.872,609.409,921.431,637.512,914.2,645.9Z" transform="translate(-378.166 -281.95)" fill="#6c63ff"/>
    <path id="Pfad_84" data-name="Pfad 84" d="M908.052,654.572a3.069,3.069,0,0,1-1.749-.559c-5.21-3.247-5.315-15.429-4.075-27C906.7,637.437,911.606,651.958,908.052,654.572Z" transform="translate(-375.957 -288.737)" opacity="0.1"/>
    <path id="Pfad_85" data-name="Pfad 85" d="M914.206,652.219c-.614,1.295-1.405,1.982-2.455,1.89h0a3.523,3.523,0,0,1-1.485-.558,7.905,7.905,0,0,1-2.946-3.805c.264-5.947,4-16.258,7.365-23.935C915.851,636.483,916.25,647.831,914.206,652.219Z" transform="translate(-378.176 -288.273)" opacity="0.1"/>
    <path id="Pfad_86" data-name="Pfad 86" d="M907.713,588.77s-10.642,43.857,0,50.473S910.444,592.655,907.713,588.77Z" transform="translate(-376.501 -273.966)" fill="#6c63ff"/>
    <path id="Pfad_87" data-name="Pfad 87" d="M870.976,591.66H826.69v7.334h6.757l.166.865,2.706,14.232h25.746l2.706-14.232.166-.865h6.039Z" transform="translate(-319.346 -228.543)" fill="#d4dfec"/>
    <path id="Pfad_88" data-name="Pfad 88" d="M870.946,591.66H826.66v7.334h6.758l.165.865,2.706,14.232h25.746l2.706-14.232.166-.865h6.039Z" transform="translate(-319.334 -228.543)" opacity="0.1"/>
    <path id="Pfad_89" data-name="Pfad 89" d="M872.214,598.69l-.743,3.885-2.707,14.232H843.019l-2.707-14.232-.743-3.885Z" transform="translate(-324.321 -231.259)" fill="#d4dfec"/>
    <path id="Pfad_90" data-name="Pfad 90" d="M872.214,598.69l-.743,3.885H840.313l-.743-3.885Z" transform="translate(-324.321 -231.259)" opacity="0.1"/>
    <rect id="Rechteck_40" data-name="Rechteck 40" width="44.286" height="7.334" transform="translate(509.069 363.117)" fill="#d4dfec"/>
    <path id="Pfad_91" data-name="Pfad 91" d="M304.888,587.9a11.323,11.323,0,0,0-1.5,2.823c-.092.245-.184.528-.276.8a2.183,2.183,0,0,0-.522-.178,7.242,7.242,0,0,0-2.344-.2c0-.307.031-.614.043-.964.1-3.474-.313-8.3-3.621-6.26-3.173,1.976-.908,5.253,1.142,7.365.178.184.35.35.522.515-1.841,1.344-2.222,4.431-2.535,7.666s-3.069,6.751-4.873,8.776c-.178.2-.35.387-.516.558a6.616,6.616,0,0,0-5.29-1.363l-.245-.9c-1.473-5.321-4.535-14.539-8.439-16.571l.516-.651c1.657-2.172,3.523-5.395.767-6.217s-3.007,2.792-2.854,5.523a9.28,9.28,0,0,0,.08.964A4.069,4.069,0,0,0,272.054,591c-.129-.16-.27-.325-.423-.5-2.234-2.645-6.34-6.825-7.579-3.682-1.154,2.946,2.455,6.751,5,9l.16.135c-1.706,6.923,5.732,12.557,9.746,15.024.178.117.35.221.516.319-5.523,6.512-8.942,18.725-8.942,18.725l15.5,2.817s10.268-8.856,8.954-17.184h.1c10.255-2.056,12.588-12.993,10.992-19.486l.178-.074a11.661,11.661,0,0,0,4.75-3.59C313.854,588.518,307.834,584.007,304.888,587.9Z" transform="translate(-129.612 -271.732)" fill="#6c63ff"/>
    <path id="Pfad_92" data-name="Pfad 92" d="M304.888,587.9a11.323,11.323,0,0,0-1.5,2.823c-.092.245-.184.528-.276.8a2.183,2.183,0,0,0-.522-.178,7.242,7.242,0,0,0-2.344-.2c0-.307.031-.614.043-.964.1-3.474-.313-8.3-3.621-6.26-3.173,1.976-.908,5.253,1.142,7.365.178.184.35.35.522.515-1.841,1.344-2.222,4.431-2.535,7.666s-3.069,6.751-4.873,8.776c-.178.2-.35.387-.516.558a6.616,6.616,0,0,0-5.29-1.363l-.245-.9c-1.473-5.321-4.535-14.539-8.439-16.571l.516-.651c1.657-2.172,3.523-5.395.767-6.217s-3.007,2.792-2.854,5.523a9.28,9.28,0,0,0,.08.964A4.069,4.069,0,0,0,272.054,591c-.129-.16-.27-.325-.423-.5-2.234-2.645-6.34-6.825-7.579-3.682-1.154,2.946,2.455,6.751,5,9l.16.135c-1.706,6.923,5.732,12.557,9.746,15.024.178.117.35.221.516.319-5.523,6.512-8.942,18.725-8.942,18.725l15.5,2.817s10.268-8.856,8.954-17.184h.1c10.255-2.056,12.588-12.993,10.992-19.486l.178-.074a11.661,11.661,0,0,0,4.75-3.59C313.854,588.518,307.834,584.007,304.888,587.9Z" transform="translate(-129.612 -271.732)" opacity="0.1"/>
    <path id="Pfad_93" data-name="Pfad 93" d="M274.676,594.1l-1.811,5.3a29.254,29.254,0,0,1-2.277-1.841c-2.541-2.222-6.137-6.051-5-9,1.228-3.167,5.346,1.013,7.586,3.682C274.075,593.3,274.676,594.1,274.676,594.1Z" transform="translate(-130.209 -273.448)" fill="#6c63ff"/>
    <path id="Pfad_94" data-name="Pfad 94" d="M285.417,589.385a26.243,26.243,0,0,1-1.761,2.074,27.126,27.126,0,0,1-.325-2.786c-.147-2.713.135-6.315,2.854-5.524S287.074,587.213,285.417,589.385Z" transform="translate(-137.133 -271.752)" fill="#6c63ff"/>
    <path id="Pfad_95" data-name="Pfad 95" d="M321.521,590.5c-.061,1.743-.227,3.136-.227,3.136a23.031,23.031,0,0,1-2.258-2.019c-2.05-2.124-4.3-5.4-1.135-7.365C321.208,582.194,321.613,587.024,321.521,590.5Z" transform="translate(-149.891 -272.03)" fill="#6c63ff"/>
    <path id="Pfad_96" data-name="Pfad 96" d="M336.875,594.643a11.658,11.658,0,0,1-4.75,3.59,12.808,12.808,0,0,1-1.6.577l-2.13-2.995a21.483,21.483,0,0,1,.884-2.909,11.125,11.125,0,0,1,1.5-2.823C333.727,586.167,339.742,590.678,336.875,594.643Z" transform="translate(-154.554 -273.891)" fill="#6c63ff"/>
    <path id="Pfad_97" data-name="Pfad 97" d="M276.46,595.26c.9,1.056,1.5,1.841,1.5,1.841l-1.81,5.3a29.247,29.247,0,0,1-2.277-1.841,10.384,10.384,0,0,1,2.038-4.658Q276.184,595.573,276.46,595.26Z" transform="translate(-133.491 -276.473)" opacity="0.1"/>
    <path id="Pfad_98" data-name="Pfad 98" d="M285.437,592.932a26.207,26.207,0,0,1-1.761,2.074,27.142,27.142,0,0,1-.325-2.786A3.6,3.6,0,0,1,285.437,592.932Z" transform="translate(-137.153 -275.299)" opacity="0.1"/>
    <path id="Pfad_99" data-name="Pfad 99" d="M290.615,614.557l-4.5,1.982a26.9,26.9,0,0,1-2.4-1.356c-4.732-2.909-14.245-10.231-7.868-18.866s11.7,6.849,13.79,14.423C290.277,613,290.615,614.557,290.615,614.557Z" transform="translate(-133.432 -275.898)" fill="#6c63ff"/>
    <path id="Pfad_100" data-name="Pfad 100" d="M320.74,595.857a3.682,3.682,0,0,1,2.486-1.117c-.061,1.743-.227,3.136-.227,3.136A23.069,23.069,0,0,1,320.74,595.857Z" transform="translate(-151.595 -276.272)" opacity="0.1"/>
    <path id="Pfad_101" data-name="Pfad 101" d="M332.125,600.957a12.818,12.818,0,0,1-1.6.577l-2.13-2.995a21.482,21.482,0,0,1,.884-2.909C330.658,596.434,331.671,598.435,332.125,600.957Z" transform="translate(-154.554 -276.616)" opacity="0.1"/>
    <path id="Pfad_102" data-name="Pfad 102" d="M310.564,620.756c-.245.049-.5.1-.755.135-15.091,2.3-4.977-5.849-4.977-5.849s.681-.614,1.6-1.645c1.841-2.013,4.56-5.524,4.873-8.776.473-4.91,1.019-9.482,6.794-8.132C323.765,597.815,324.846,617.9,310.564,620.756Z" transform="translate(-144.169 -276.855)" fill="#6c63ff"/>
    <rect id="Rechteck_41" data-name="Rechteck 41" width="28.833" height="7.58" transform="translate(137.286 381.473)" fill="#d4dfec"/>
    <rect id="Rechteck_42" data-name="Rechteck 42" width="37.67" height="26.458" transform="translate(132.702 356.832)" fill="#d4dfec"/>
    <rect id="Rechteck_43" data-name="Rechteck 43" width="28.833" height="7.58" transform="translate(137.286 381.473)" opacity="0.1"/>
    <rect id="Rechteck_44" data-name="Rechteck 44" width="37.67" height="26.458" transform="translate(132.702 356.832)" opacity="0.1"/>
    <rect id="Rechteck_45" data-name="Rechteck 45" width="28.833" height="7.58" transform="translate(139.176 381.473)" fill="#d4dfec"/>
    <path id="Pfad_103" data-name="Pfad 103" d="M295.932,621.42c.614,2.265.976,3.817.976,3.817l-4.5,1.982a26.933,26.933,0,0,1-2.4-1.356C291.771,623.617,293.76,621.942,295.932,621.42Z" transform="translate(-139.725 -286.578)" opacity="0.1"/>
    <path id="Pfad_104" data-name="Pfad 104" d="M310.564,631.548c-.245.049-.5.1-.755.135-15.091,2.3-4.977-5.849-4.977-5.849s.681-.614,1.6-1.645A10,10,0,0,1,310.564,631.548Z" transform="translate(-144.169 -287.648)" opacity="0.1"/>
    <path id="Pfad_105" data-name="Pfad 105" d="M276.29,645.4s8.451-30.244,20.3-20.928-4.818,23.7-4.818,23.7Z" transform="translate(-134.426 -287.067)" fill="#6c63ff"/>
    <circle id="Ellipse_15" data-name="Ellipse 15" cx="0.945" cy="0.945" r="0.945" transform="translate(145.185 324.219)" opacity="0.1"/>
    <circle id="Ellipse_16" data-name="Ellipse 16" cx="0.945" cy="0.945" r="0.945" transform="translate(145.105 328.638)" opacity="0.1"/>
    <circle id="Ellipse_17" data-name="Ellipse 17" cx="0.945" cy="0.945" r="0.945" transform="translate(172.588 325.084)" opacity="0.1"/>
    <circle id="Ellipse_18" data-name="Ellipse 18" cx="0.945" cy="0.945" r="0.945" transform="translate(150.475 347.749)" opacity="0.1"/>
    <circle id="Ellipse_19" data-name="Ellipse 19" cx="0.945" cy="0.945" r="0.945" transform="translate(170.618 332.43)" opacity="0.1"/>
    <circle id="Ellipse_20" data-name="Ellipse 20" cx="0.945" cy="0.945" r="0.945" transform="translate(160.822 342.225)" opacity="0.1"/>
    <circle id="Ellipse_21" data-name="Ellipse 21" cx="0.945" cy="0.945" r="0.945" transform="translate(148.425 326.109)" opacity="0.1"/>
    <circle id="Ellipse_22" data-name="Ellipse 22" cx="0.945" cy="0.945" r="0.945" transform="translate(169.985 327.926)" opacity="0.1"/>
    <circle id="Ellipse_23" data-name="Ellipse 23" cx="0.945" cy="0.945" r="0.945" transform="translate(166.745 335.272)" opacity="0.1"/>
    <circle id="Ellipse_24" data-name="Ellipse 24" cx="0.945" cy="0.945" r="0.945" transform="translate(156.796 347.043)" opacity="0.1"/>
    <circle id="Ellipse_25" data-name="Ellipse 25" cx="0.945" cy="0.945" r="0.945" transform="translate(154.74 342.379)" opacity="0.1"/>
    <circle id="Ellipse_26" data-name="Ellipse 26" cx="0.945" cy="0.945" r="0.945" transform="translate(149.843 331.878)" opacity="0.1"/>
    <rect id="Rechteck_46" data-name="Rechteck 46" width="28.833" height="2.768" transform="translate(139.176 381.473)" opacity="0.1"/>
    <rect id="Rechteck_47" data-name="Rechteck 47" width="37.67" height="26.458" transform="translate(134.598 356.832)" fill="#d4dfec"/>
    <circle id="Ellipse_27" data-name="Ellipse 27" cx="0.945" cy="0.945" r="0.945" transform="translate(158.061 351.309)" opacity="0.1"/>
    <circle id="Ellipse_28" data-name="Ellipse 28" cx="0.945" cy="0.945" r="0.945" transform="translate(152.371 352.493)" opacity="0.1"/>
  </g>
</svg>
